<?xml version="1.0" encoding="utf-8"?>
<!-- Generator: Adobe Illustrator 22.1.0, SVG Export Plug-In . SVG Version: 6.00 Build 0)  -->
<svg version="1.1" id="Capa_1" xmlns="http://www.w3.org/2000/svg" xmlns:xlink="http://www.w3.org/1999/xlink" x="0px" y="0px"
	 viewBox="0 0 404 404" style="enable-background:new 0 0 404 404;" xml:space="preserve">
<style type="text/css">
	.st0{fill:#00964E;stroke:#00964E;stroke-miterlimit:10;}
</style>
<path class="st0" d="M48.6,18.5c-2.6-1.3-5.3-2.3-7.4-4.3c-0.5-0.4-1-0.1-1.1,0.5c-0.2,1.3-0.2,2.5-0.2,3.7c-2.4-0.8-5.7-0.3-8-0.5
	c-4.9-0.4-9.9-1.5-14.8-1.3c-0.5,0-0.8,0.6-0.6,1c1.3,2,3,3.6,4.5,5.3c-1.7,2.1-3.6,3.8-5.2,5.9c-0.4,0.5-0.2,1.1,0.5,1.2
	c8.5,0.7,16-5.3,24.2-6.8c-0.2,1.5-0.1,3-0.1,4.5c0,0.5,0.7,0.8,1.1,0.5c2.7-2.7,5.2-5.5,7.4-8.7C49,19,48.8,18.6,48.6,18.5z
	 M17.6,28.6c1.4-1.7,2.9-3.3,4-5.2c0.3,0.1,0.7-0.3,0.5-0.7c-1.2-1.7-2.6-3.2-3.8-4.9c3.9,0.1,7.8,0.8,11.7,1.2
	c3.6,0.4,7.4,0.6,11,0.7c0.5,0,0.6-0.6,0.3-0.9c-0.1-0.1-0.1-0.1-0.2-0.1c0-1,0.1-2,0.2-3c1.9,1.5,4,2.4,6.1,3.4
	c-1.8,2.5-3.7,4.7-5.8,6.9c-0.1-1.3-0.2-2.5-0.1-3.8c0-0.3-0.3-0.5-0.5-0.5c-0.1-0.2-0.3-0.3-0.5-0.2C32.5,22.6,25.6,28.5,17.6,28.6
	z"/>
</svg>
